<svg width="15" height="16" viewBox="0 0 15 16" fill="none" xmlns="http://www.w3.org/2000/svg">
<g id="material-symbols:done-rounded">
<path id="Vector" d="M6.01249 9.91252L11.158 4.76698C11.2795 4.64555 11.4237 4.58484 11.5909 4.58484C11.7581 4.58484 11.9022 4.64555 12.0232 4.76698C12.1446 4.88841 12.2053 5.03271 12.2053 5.19987C12.2053 5.36704 12.1446 5.51114 12.0232 5.63216L6.43749 11.2179C6.31606 11.3393 6.17439 11.4 6.01249 11.4C5.85058 11.4 5.70892 11.3393 5.58749 11.2179L2.97677 8.60716C2.85534 8.48573 2.79706 8.34143 2.80192 8.17427C2.80677 8.0071 2.87012 7.86301 2.99195 7.74198C3.11338 7.62055 3.25768 7.55984 3.42484 7.55984C3.59201 7.55984 3.73611 7.62055 3.85713 7.74198L6.01249 9.91252Z" fill="white"/>
</g>
</svg>
